<svg xmlns="http://www.w3.org/2000/svg" version="1.1" xmlns:xlink="http://www.w3.org/1999/xlink" viewBox="0 0 9.19425432636785 3.085758232617849"><g transform="matrix(0.750958550606974,0,0,0.750958550606974,3.3782943105325964,1.1243150608802817)"><g transform="matrix(1,0,0,1,0,0)" clip-path="url(#SvgjsClipPath100450)"><g clip-path="url(#SvgjsClipPath1004487de6afe3-d9c8-4128-aa10-d081ea3bcc32)"><path d=" M -2.4563544999968294 0.8322280193974088 C -2.43026873849802 0.9290650144363906 -2.330689518644365 0.9864847204299318 -2.2338115674602794 0.9605514766003074 C -2.1369623915366365 0.9344572927031616 -2.0794558509064807 0.8349515931858085 -2.105199093461887 0.7380085440637636 C -2.131284854960699 0.641171549024776 -2.230864074814357 0.5837518430312405 -2.3277420259984396 0.6096850868608592 C -2.374344664731517 0.622082558012236 -2.414097923207612 0.6525161064678504 -2.4382275626619347 0.6942685163101536 C -2.4623572021162548 0.7360209261524626 -2.4688793664376263 0.785659457593596 -2.4563544999968294 0.8322280193974088 Z" fill="#225777" transform="matrix(1,0,0,1,0,0)" fill-rule="evenodd"></path></g><g clip-path="url(#SvgjsClipPath1004487de6afe3-d9c8-4128-aa10-d081ea3bcc32)"><path d=" M -1.7898817695691855 0.6536156397771682 C -1.77699782088673 0.6976470332544227 -1.7312987942813358 0.72332064370689 -1.6869917903704699 0.7114189988775783 C -1.6429603968932152 0.6985350501951169 -1.617286786440745 0.6528360235897197 -1.6291884312700624 0.6085290196788538 C -1.641942949655724 0.5645372569042908 -1.687554864186074 0.5388404036477492 -1.7317893936732873 0.5507256605784552 C -1.7759373212549305 0.5634852881484038 -1.8017609794806417 0.609222712667572 -1.7898817695691855 0.6536156397771682 Z" fill="#225777" transform="matrix(1,0,0,1,0,0)" fill-rule="evenodd"></path></g><g clip-path="url(#SvgjsClipPath1004487de6afe3-d9c8-4128-aa10-d081ea3bcc32)"><path d=" M -2.095083505619314 0.557373046875 C -2.0951602668608875 0.5926063730937379 -2.0812176588352402 0.6264229314112988 -2.056331000214797 0.6513638093315715 C -2.0314443415943604 0.6763046872518383 -1.9976582063205335 0.6903208564239376 -1.9624247964838872 0.6903207728059264 C -1.927191386647241 0.6903208564239376 -1.8934052513734143 0.6763046872518383 -1.8685185927529744 0.6513638093315715 C -1.8436319341325316 0.6264229314112988 -1.829689326106887 0.5926063730937379 -1.8297660873484607 0.557373046875 C -1.8297660868241876 0.5221897716682247 -1.8437425887628565 0.4884475097112355 -1.8686209222729875 0.4635691754596708 C -1.8934992557831216 0.4386908412081061 -1.9272415173235768 0.4247143382638435 -1.9624247945071196 0.42471433773957346 C -1.9976080736674273 0.42471433773957346 -2.031350335416151 0.43869084018103766 -2.0562286692970004 0.463569174061887 C -2.08110700317785 0.4884475079427305 -2.095083505619314 0.522189769691457 -2.095083505619314 0.557373046875 Z" fill="#225777" transform="matrix(1,0,0,1,0,0)" fill-rule="evenodd"></path></g><g clip-path="url(#SvgjsClipPath1004487de6afe3-d9c8-4128-aa10-d081ea3bcc32)"><path d=" M -1.1566459706242722 1.5825156205206423 C -1.0598089755852906 1.556429859021827 -1.0023892695917522 1.4568506391681721 -1.0283225134213767 1.3599726879840868 C -1.0407199845727504 1.313370049251012 -1.071153533028362 1.2736167907749143 -1.1129059428706711 1.2494871513205943 C -1.1546583527129772 1.2253575118662745 -1.2042968841541104 1.2188353475448999 -1.2508654459579263 1.2313602139856998 C -1.347702440996908 1.257445975484509 -1.4051221469904465 1.3570251953381611 -1.379188903160822 1.4539031465222467 C -1.353094719263679 1.5507523224458901 -1.253589019746326 1.608258863076046 -1.1566459706242753 1.5825156205206423 Z" fill="#173054" transform="matrix(1,0,0,1,0,0)" fill-rule="evenodd"></path></g><g clip-path="url(#SvgjsClipPath1004487de6afe3-d9c8-4128-aa10-d081ea3bcc32)"><path d=" M -1.335258350244516 0.9163319068884985 C -1.2911625431643499 0.9037089535174698 -1.2654032975715488 0.8579862925902442 -1.2774549911441115 0.8137309444852796 C -1.2894441724513934 0.7690510581681895 -1.335365393099464 0.7425331701883204 -1.3800559535473305 0.7544825014073699 C -1.4247482757003047 0.7664800124615903 -1.4513529930840232 0.8123279477587693 -1.4395934134207402 0.8570834638105946 C -1.433860577080003 0.8789311293401301 -1.4195524096803307 0.8975401575580111 -1.399911082757441 0.9086938196610364 C -1.3802697558345511 0.9198474817640674 -1.3569580676302992 0.9226015294431515 -1.335258350244519 0.9163319068885045 Z" fill="#173054" transform="matrix(1,0,0,1,0,0)" fill-rule="evenodd"></path></g><g clip-path="url(#SvgjsClipPath1004487de6afe3-d9c8-4128-aa10-d081ea3bcc32)"><path d=" M -1.431211926351187 1.221244626143121 C -1.3580124876098767 1.2210856691454217 -1.2987121742134655 1.1617853557490077 -1.2985532172157606 1.0885859170077001 C -1.2985530439790447 1.0152736356064143 -1.357899818171004 0.9557975656047064 -1.4312119263451435 0.9556381910767797 C -1.504636927907514 0.9556381910767737 -1.5641596522821077 1.0151609154513643 -1.5641596522821077 1.0885859170077001 C -1.5640002777575193 1.1618980251818398 -1.5045242077585135 1.2212447993765043 -1.43121192635119 1.221244626143121 Z" fill="#173054" transform="matrix(1,0,0,1,0,0)" fill-rule="evenodd"></path></g><g clip-path="url(#SvgjsClipPath1004487de6afe3-d9c8-4128-aa10-d081ea3bcc32)"><path d=" M -1.9618467628928844 1.476446456571401 C -1.8749939430593237 1.5264162645821573 -1.7640834165206745 1.496685004554314 -1.713870352352155 1.4099725936059349 C -1.6897005921337167 1.3682500318042778 -1.683125868618762 1.3186248733073205 -1.69559701803301 1.2720478413645555 C -1.708068167447255 1.2254708094217965 -1.738560106197021 1.1857703684113203 -1.7803442153176152 1.1617071662697054 C -1.822040796047389 1.1376292231561098 -1.8715959882927096 1.1311058883083858 -1.9181032617152827 1.1435728730253911 C -1.964610535137856 1.1560398577423963 -2.0042583318648735 1.186475415741217 -2.0283206258583477 1.2281810292351716 C -2.052490386076783 1.2699035910368344 -2.059065109591738 1.3195287495337857 -2.0465939601774896 1.3661057814765507 C -2.0341228107632445 1.4126828134193157 -2.003630872013476 1.4523832544297919 -1.9618467628928844 1.476446456571404 Z" fill="#225777" transform="matrix(1,0,0,1,0,0)" fill-rule="evenodd"></path></g><g clip-path="url(#SvgjsClipPath1004487de6afe3-d9c8-4128-aa10-d081ea3bcc32)"><path d=" M -1.6167607090634784 0.8787597234732345 C -1.597416452341828 0.8902340408475 -1.5742722444961639 0.8934522901117925 -1.5525313343276177 0.8876909489171307 C -1.5307904241590684 0.8819296077224632 -1.512277276232579 0.8676721591785481 -1.5011539908626697 0.8481239431500271 C -1.4896796734884072 0.8287796864283736 -1.4864614242241119 0.8056354785827093 -1.4922227654187763 0.7838945684141634 C -1.497984106613441 0.7621536582456112 -1.5122415551573591 0.7436405103191246 -1.531789771185883 0.7325172249492184 C -1.5510947943812852 0.720880189733859 -1.5742940754930026 0.7175703304760033 -1.5960831597710832 0.723344437809694 C -1.6178722440491669 0.7291185451433904 -1.6363878703791288 0.743482854873289 -1.647396489386689 0.7631530052724258 C -1.658951695048489 0.7824778523446776 -1.6622154392963153 0.8056493954529027 -1.656447767677935 0.8274141940128321 C -1.6506800960595518 0.8491789925727731 -1.6363695859748622 0.8676933582828814 -1.6167607090634784 0.8787597234732345 Z" fill="#173054" transform="matrix(1,0,0,1,0,0)" fill-rule="evenodd"></path></g><g clip-path="url(#SvgjsClipPath1004487de6afe3-d9c8-4128-aa10-d081ea3bcc32)"><path d=" M -1.9005752022464548 1.0267363227702677 C -1.8757360675196708 1.0516747096622914 -1.8419873451616635 1.0656933232186308 -1.8067892521060536 1.0656933232186308 C -1.7715911590504407 1.0656933232186308 -1.7378424366924334 1.0516747096622914 -1.7130033019656494 1.0267363227702677 C -1.6612207458678463 0.9749339770737406 -1.6612207458678463 0.8909667681859867 -1.7130033019656494 0.8391644224894594 C -1.7378424366924334 0.814226035597436 -1.7715911590504407 0.8002074220410964 -1.8067892521060536 0.8002074220410964 C -1.8419873451616635 0.8002074220410964 -1.8757360675196708 0.814226035597436 -1.9005752022464548 0.8391644224894594 C -1.9255135891384785 0.8640035572162466 -1.9395322026948207 0.8977522795742539 -1.9395322026948207 0.9329503726298667 C -1.9395322026948207 0.9681484656854735 -1.9255135891384785 1.0018971880434808 -1.9005752022464548 1.0267363227702677 Z" fill="#225777" transform="matrix(1,0,0,1,0,0)" fill-rule="evenodd"></path></g><g clip-path="url(#SvgjsClipPath1004487de6afe3-d9c8-4128-aa10-d081ea3bcc32)"><path d=" M -0.5124275334502832 1.0880078834166946 C -0.46243188764418863 1.0010681388259774 -0.4921524252878593 0.8900683917133114 -0.5789013964157492 0.8397424560804652 C -0.6658411410064722 0.7897468102743705 -0.7768408881191353 0.8194673479180414 -0.8271668237519787 0.9062163190459314 C -0.8771624695580702 0.9931560636366543 -0.8474419319143995 1.1041558107493143 -0.7606929607865067 1.1544817463821606 C -0.7189703989848528 1.1786515066005991 -0.6693452404878955 1.1852262301155507 -0.6227682085451303 1.1727550807013027 C -0.5761911766023684 1.1602839312870605 -0.5364907355918922 1.1297919925372917 -0.5124275334502773 1.0880078834167004 Z" fill="#173054" transform="matrix(1,0,0,1,0,0)" fill-rule="evenodd"></path></g><g clip-path="url(#SvgjsClipPath1004487de6afe3-d9c8-4128-aa10-d081ea3bcc32)"><path d=" M -1.1095362329574439 0.7429218295872915 C -1.0980619155831812 0.723577572865638 -1.0948436663188859 0.7004333650199737 -1.1006050075135505 0.6786924548514277 C -1.1063663487082152 0.6569515446828815 -1.1206237972521331 0.6384383967563889 -1.1401720132806572 0.6273151113864828 C -1.159516270002305 0.6158407940122173 -1.182660477847972 0.6126225447479248 -1.204401388016518 0.6183838859425865 C -1.2261422981850671 0.6241452271372541 -1.2446554461115567 0.6384026756811692 -1.255778731481463 0.6579508917096961 C -1.2671730829779375 0.6773141547494854 -1.2703464430463995 0.7004314208101989 -1.2645913295597782 0.722148830193674 C -1.2588362160731565 0.7438662395771491 -1.2446311079231636 0.76237821155997 -1.2251429511582526 0.7735576099104988 C -1.2057796881184601 0.7849519614069764 -1.1826624220577497 0.7881253214754385 -1.1609450126742746 0.7823702079888168 C -1.1392276032907938 0.7766150945021955 -1.1207156313079758 0.7624099863522025 -1.1095362329574439 0.7429218295872915 Z" fill="#3a868f" transform="matrix(1,0,0,1,0,0)" fill-rule="evenodd"></path></g><g clip-path="url(#SvgjsClipPath1004487de6afe3-d9c8-4128-aa10-d081ea3bcc32)"><path d=" M -0.9618486504559134 1.0267363227702677 C -0.9100660943581103 0.9749339770737406 -0.9100660943581103 0.8909667681859867 -0.9618486504559134 0.8391644224894594 C -0.9867372043742686 0.8142085594046542 -1.02053375159122 0.8001828293871893 -1.0557791089940676 0.8001828293871893 C -1.091024466396915 0.8001828293871893 -1.1248210136138665 0.8142085594046542 -1.1497095675322246 0.8391644224894594 C -1.1746479544242452 0.8640035572162466 -1.1886665679805877 0.8977522795742539 -1.1886665679805877 0.9329503726298667 C -1.1886665679805877 0.9681484656854735 -1.1746479544242452 1.0018971880434808 -1.1497095675322246 1.0267363227702677 C -1.1248210136138665 1.051692185855079 -1.091024466396915 1.0657179158725378 -1.0557791089940676 1.0657179158725378 C -1.02053375159122 1.0657179158725378 -0.9867372043742686 1.051692185855079 -0.9618486504559134 1.0267363227702677 Z" fill="#173054" transform="matrix(1,0,0,1,0,0)" fill-rule="evenodd"></path></g><g clip-path="url(#SvgjsClipPath1004487de6afe3-d9c8-4128-aa10-d081ea3bcc32)"><path d=" M -0.9008661066049866 -0.36141134602590685 C -0.9877834538905126 -0.411577606166684 -1.0989102521590801 -0.3818230501692814 -1.149131533941216 -0.29493748306044065 C -1.1992493549896615 -0.20794446213786583 -1.169359141491809 -0.09679427428222898 -1.0823686541802529 -0.046672055724217176 C -1.0406370247415522 -0.022618082749820856 -0.9910554613698248 -0.016138731956969632 -0.9445440194294097 -0.02866104324861818 C -0.8980325774889917 -0.041183354540272554 -0.8584061546676474 -0.07168024007741308 -0.8343922436395235 -0.11343493548517736 C -0.810235913391961 -0.15511344094076623 -0.8036688312891098 -0.20469500752269004 -0.8161419285295668 -0.25122508331535676 C -0.8286150257700238 -0.29775515910801764 -0.8591016573797254 -0.337403911990765 -0.9008661066049837 -0.36141134602590685 Z" fill="#3a868f" transform="matrix(1,0,0,1,0,0)" fill-rule="evenodd"></path></g><g clip-path="url(#SvgjsClipPath1004487de6afe3-d9c8-4128-aa10-d081ea3bcc32)"><path d=" M -1.2459521604343926 0.23598637027675962 C -1.2653506508211885 0.22461578842413144 -1.2884945046570986 0.22148639866795972 -1.3102161351339698 0.22729693482052393 C -1.3319377656108382 0.23310747097308238 -1.3504282022307634 0.2473740334261888 -1.3615588786352013 0.26691116739547294 C -1.373033196009464 0.28625542411712646 -1.3762514452737593 0.3093996319627905 -1.3704901040790947 0.3311405421313367 C -1.36472876288443 0.3528814522998829 -1.350471314340512 0.3713946002263754 -1.330923098311994 0.3825178855962815 C -1.3115598352721987 0.39391223709275913 -1.2884425692114851 0.3970855971612154 -1.26672515982801 0.3913304836745938 C -1.245007750444532 0.38557537018797805 -1.2264957784617112 0.3713702620379793 -1.2153163801111821 0.3518821052730682 C -1.2038291710937774 0.33249357467784657 -1.200603625705272 0.30930601793297574 -1.2063629519534556 0.2875183780695574 C -1.2121222782016452 0.26573073820613313 -1.2263846128739917 0.24716591284891687 -1.2459521604343926 0.23598637027675962 Z" fill="#3a868f" transform="matrix(1,0,0,1,0,0)" fill-rule="evenodd"></path></g><g clip-path="url(#SvgjsClipPath1004487de6afe3-d9c8-4128-aa10-d081ea3bcc32)"><path d=" M -0.9618486504559134 0.08829878777522626 C -0.9867372043742686 0.06334292469042113 -1.02053375159122 0.049317194672956255 -1.0557791089940676 0.049317194672956255 C -1.091024466396915 0.049317194672956255 -1.1248210136138665 0.06334292469042113 -1.1497095675322246 0.08829878777522626 C -1.1746479544242452 0.11313792250201327 -1.1886665679805877 0.14688664486002057 -1.1886665679805877 0.1820847379156334 C -1.1886665679805877 0.21728283097124035 -1.1746479544242452 0.25103155332924765 -1.1497095675322246 0.27587068805603465 C -1.0977425848619966 0.3275278015745695 -1.0138156331261385 0.3275278015745695 -0.9618486504559134 0.27587068805603465 C -0.9100660943581103 0.22406834235950734 -0.9100660943581103 0.14010113347175357 -0.9618486504559134 0.08829878777522626 Z" fill="#3a868f" transform="matrix(1,0,0,1,0,0)" fill-rule="evenodd"></path></g><g clip-path="url(#SvgjsClipPath1004487de6afe3-d9c8-4128-aa10-d081ea3bcc32)"><path d=" M -0.40635836950104176 0.2828070911480852 C -0.4324441309998539 0.18597009610909776 -0.5320233508535119 0.12855039011556213 -0.6289013020375944 0.15448363394518672 C -0.6754821225481289 0.166816213343693 -0.715233123618086 0.19719295947342252 -0.739367374148223 0.23889911376033024 C -0.763501624678363 0.28060526804724384 -0.7700315720827913 0.330206160966519 -0.7575137760359871 0.3767375496862364 C -0.7315561474351047 0.47369152559876215 -0.6319365207591372 0.5312639072491636 -0.5349708434994374 0.505350023684635 C -0.43801686758691183 0.47939239508374953 -0.3804444859365135 0.3797727684077793 -0.40635836950104176 0.28280709114807945 Z" fill="#3a868f" transform="matrix(1,0,0,1,0,0)" fill-rule="evenodd"></path></g><g clip-path="url(#SvgjsClipPath1004487de6afe3-d9c8-4128-aa10-d081ea3bcc32)"><path d=" M -1.0731201167241882 0.461419470768326 C -1.0856096907166735 0.41721855304486133 -1.1314449404769908 0.3913958771235547 -1.1757210791274042 0.40361611166792166 C -1.2198168862075704 0.4162390650389505 -1.2455761318003744 0.461961725966176 -1.2335244382278086 0.5062170740711406 C -1.2210348642353233 0.5504179917946053 -1.175199614475009 0.576240667715906 -1.1309234758245925 0.5640204331715448 C -1.086722558101125 0.5515308591790595 -1.0608998821798183 0.5056956094187453 -1.0731201167241853 0.4614194707683319 Z" fill="#3a868f" transform="matrix(1,0,0,1,0,0)" fill-rule="evenodd"></path></g><g clip-path="url(#SvgjsClipPath1004487de6afe3-d9c8-4128-aa10-d081ea3bcc32)"><path d=" M -0.7676293638785603 0.557373046875 C -0.7677883208762593 0.48417360813369836 -0.8270886342726733 0.4248732947372784 -0.9002880730139808 0.42471433773957346 C -0.9736003544213163 0.42471416450619015 -1.033076424420319 0.48406093870084865 -1.0332357989449132 0.557373046875 C -1.0332357978507951 0.630798050412406 -0.9737130725892467 0.6903207739000419 -0.9002880710329138 0.6903207728059206 C -0.8269759648398354 0.6901613982813293 -0.767629190645174 0.6306853282823295 -0.7676293638785603 0.557373046875 Z" fill="#3a868f" transform="matrix(1,0,0,1,0,0)" fill-rule="evenodd"></path></g><g clip-path="url(#SvgjsClipPath1004487de6afe3-d9c8-4128-aa10-d081ea3bcc32)"><path d=" M -1.706066898873599 -0.4674805099751481 C -1.8029038939125863 -0.44139474847633897 -1.8603235999061218 -0.34181552862268094 -1.8343903560765003 -0.24493757743859843 C -1.8219304076085652 -0.19838829841258676 -1.79147094986447 -0.15870454828995667 -1.7497257633460381 -0.1346332978819278 C -1.707980576827603 -0.11056204747389309 -1.6583766121747487 -0.10407935662996826 -1.6118474235399418 -0.11661412023570572 C -1.5653199608048793 -0.12900928214275592 -1.5256385210281267 -0.15941197949174973 -1.5015626875899033 -0.20111088920795078 C -1.47748685415168 -0.24280979892415183 -1.4709963600241054 -0.2923760591707202 -1.4835239663370463 -0.33886803597675547 C -1.5094815949379345 -0.43582201188927533 -1.6091012216139018 -0.4933943935396767 -1.7060668988736047 -0.4674805099751481 Z" fill="#3a868f" transform="matrix(1,0,0,1,0,0)" fill-rule="evenodd"></path></g><g clip-path="url(#SvgjsClipPath1004487de6afe3-d9c8-4128-aa10-d081ea3bcc32)"><path d=" M -1.5274545192533582 0.1989922204525013 C -1.5714859127306067 0.21187616913495688 -1.597159523183077 0.25757519574035415 -1.5852578783537594 0.3018821996512142 C -1.5725033599681066 0.34587396242578294 -1.526891445437757 0.37157081568232453 -1.4826569159505434 0.35968555875161856 C -1.4379645937975634 0.34768804769740413 -1.4113598764138449 0.3018401124002251 -1.423119456077128 0.2570845963484055 C -1.429240432412075 0.235538135694071 -1.4436759495687275 0.2173088590825316 -1.4632459831187044 0.2064125246128753 C -1.4828160166686757 0.19551619014322486 -1.505915036028489 0.1928467358965691 -1.5274545192533608 0.1989922204525013 Z" fill="#3a868f" transform="matrix(1,0,0,1,0,0)" fill-rule="evenodd"></path></g><g clip-path="url(#SvgjsClipPath1004487de6afe3-d9c8-4128-aa10-d081ea3bcc32)"><path d=" M -1.431211926351187 -0.10620951559762681 C -1.466445252569922 -0.10628627683920655 -1.500261810887486 -0.09234366881355605 -1.5252026888077557 -0.06745701019311612 C -1.5501435667280195 -0.04257035157267619 -1.5641597359001218 -0.008784216298849401 -1.5641596522821106 0.026449193537793847 C -1.5641597358986563 0.06168260337995313 -1.5501435667251533 0.09546873865319949 -1.5252026888038517 0.12035539727260192 C -1.5002618108825474 0.14524205589201022 -1.466445252564406 0.15918466391624797 -1.4312119263456742 0.15910790267320873 C -1.396028649167647 0.1591079026732204 -1.3622863874189204 0.1451314002317563 -1.3374080535380741 0.12025306635090693 C -1.3125297196572248 0.09537473247006345 -1.2985532172157606 0.06163247072133682 -1.2985532172157606 0.026449193537793847 C -1.2985532166914875 -0.008734081668975657 -1.312529718630156 -0.04247634362596475 -1.3374080521402874 -0.06735467787752947 C -1.3622863856504213 -0.09223301212909418 -1.3960286471908736 -0.10620951507335674 -1.4312119243744195 -0.10620951559762681 Z" fill="#3a868f" transform="matrix(1,0,0,1,0,0)" fill-rule="evenodd"></path></g><g clip-path="url(#SvgjsClipPath1004487de6afe3-d9c8-4128-aa10-d081ea3bcc32)"><path d=" M -2.350285336047591 0.02702722712879957 C -2.37444166629515 0.06870573258438839 -2.381008748398002 0.1182872991663122 -2.3685356511575475 0.16481737495897897 C -2.3560625539170874 0.21134745075163985 -2.325575922307389 0.25099620363438724 -2.283811473082131 0.27500363766952907 C -2.242088911280471 0.2991733978879674 -2.1924637527835134 0.30574812140291907 -2.1458867208407484 0.2932769719886711 C -2.0993096888979865 0.2808058225744289 -2.0596092478875105 0.25031388382466 -2.035546045745895 0.20852977470406875 C -1.9855762377351358 0.1216769548705049 -2.0153074977629792 0.010766428331852762 -2.102019908711356 -0.03944663583666663 C -2.1437424705130157 -0.06361639605509911 -2.193367629009973 -0.07019111957005664 -2.239944660952738 -0.05771997015580865 C -2.2865216928954997 -0.045248820741560614 -2.326222133905976 -0.01475688199179176 -2.350285336047591 0.02702722712879957 Z" fill="#3a868f" transform="matrix(1,0,0,1,0,0)" fill-rule="evenodd"></path></g><g clip-path="url(#SvgjsClipPath1004487de6afe3-d9c8-4128-aa10-d081ea3bcc32)"><path d=" M -1.7525986029494245 0.37182426416270276 C -1.7639929544458992 0.39118752720249805 -1.7671663145143583 0.4143047932632056 -1.7614112010277396 0.43602220264668656 C -1.755656087541118 0.45773961203016167 -1.7414509793911253 0.4762515840129825 -1.7219628226262143 0.48743098236351146 C -1.7026185659045634 0.49890529973777686 -1.6794743580588964 0.5021235490020693 -1.6577334478903532 0.4963622078074077 C -1.6359925377218043 0.49060086661274016 -1.6174793897953115 0.4763434180688251 -1.6063561044254056 0.456795202040304 C -1.5949617529289308 0.4374319390005087 -1.5917883928604717 0.4143146729398012 -1.5975435063470904 0.3925972635563203 C -1.603298619833712 0.3708798541728452 -1.6175037279837048 0.35236788219002435 -1.636991884748619 0.3411884838394953 C -1.6563361414702666 0.3297141664652299 -1.6794803493159334 0.3264959172009374 -1.7012212594844796 0.33225725839559905 C -1.7229621696530288 0.3380185995902666 -1.7414753175795183 0.3522760481341817 -1.7525986029494245 0.37182426416270276 Z" fill="#225777" transform="matrix(1,0,0,1,0,0)" fill-rule="evenodd"></path></g><g clip-path="url(#SvgjsClipPath1004487de6afe3-d9c8-4128-aa10-d081ea3bcc32)"><path d=" M -1.9005752022464548 0.08829878777522626 C -1.9255135891384785 0.11313792250201327 -1.9395322026948207 0.14688664486002057 -1.9395322026948207 0.1820847379156334 C -1.9395322026948207 0.21728283097124035 -1.9255135891384785 0.25103155332924765 -1.9005752022464548 0.27587068805603465 C -1.8487728565499277 0.3276532441538378 -1.7648056476621767 0.3276532441538378 -1.7130033019656494 0.27587068805603465 C -1.6612207458678463 0.22406834235950734 -1.6612207458678463 0.14010113347175357 -1.7130033019656494 0.08829878777522626 C -1.7378424366924334 0.06336040088320272 -1.7715911590504407 0.04934178732686334 -1.8067892521060536 0.04934178732686334 C -1.8419873451616635 0.04934178732686334 -1.8757360675196708 0.06336040088320272 -1.9005752022464548 0.08829878777522626 Z" fill="#3a868f" transform="matrix(1,0,0,1,0,0)" fill-rule="evenodd"></path></g></g><g><path d=" M 0.211669921875 0.97998046875 Q 0.210205078125 0.986572265625 0.205078125 0.995361328125 Q 0.20068359375 1.00341796875 0.192626953125 1.0155029296875 Q 0.1845703125 1.027587890625 0.170654296875 1.04443359375 Q 0.19189453125 1.048828125 0.2135009765625 1.05029296875 Q 0.235107421875 1.0517578125 0.25341796875 1.0517578125 Q 0.2900390625 1.0517578125 0.3131103515625 1.048828125 Q 0.336181640625 1.0458984375 0.340576171875 1.04443359375 Q 0.30615234375 1.060546875 0.283447265625 1.074462890625 Q 0.2607421875 1.08837890625 0.2369384765625 1.0986328125 Q 0.213134765625 1.10888671875 0.1827392578125 1.1158447265625 Q 0.15234375 1.122802734375 0.101806640625 1.125 Q 0.104736328125 1.12353515625 0.111328125 1.11328125 L 0.097412109375 1.125 Q 0.087158203125 1.12646484375 0.076171875 1.12646484375 Q 0.065185546875 1.12646484375 0.05419921875 1.12646484375 L 0.12158203125 1.075927734375 Q 0.12451171875 1.058349609375 0.12744140625 1.0360107421875 Q 0.13037109375 1.013671875 0.132568359375 0.989501953125 Q 0.134765625 0.96533203125 0.136962890625 0.9407958984375 Q 0.13916015625 0.916259765625 0.140625 0.892822265625 Q 0.144287109375 0.838623046875 0.147216796875 0.781494140625 Q 0.15087890625 0.615234375 0.1527099609375 0.4544677734375 Q 0.154541015625 0.293701171875 0.154541015625 0.131103515625 L 0.23583984375 0 Q 0.240234375 0.0703125 0.262939453125 0.135498046875 Q 0.28564453125 0.20068359375 0.322265625 0.2618408203125 Q 0.35888671875 0.322998046875 0.40576171875 0.3797607421875 Q 0.45263671875 0.4365234375 0.50537109375 0.49072265625 Q 0.55810546875 0.544921875 0.613037109375 0.596923828125 Q 0.66796875 0.64892578125 0.719970703125 0.6998291015625 Q 0.77197265625 0.750732421875 0.8184814453125 0.8009033203125 Q 0.864990234375 0.85107421875 0.900146484375 0.901611328125 Q 0.9111328125 0.74267578125 0.9144287109375 0.5914306640625 Q 0.917724609375 0.440185546875 0.917724609375 0.2900390625 Q 0.917724609375 0.22265625 0.9140625 0.1842041015625 Q 0.910400390625 0.145751953125 0.903076171875 0.1201171875 Q 0.894287109375 0.12158203125 0.8843994140625 0.12158203125 Q 0.87451171875 0.12158203125 0.8642578125 0.12158203125 Q 0.838623046875 0.12158203125 0.8148193359375 0.1226806640625 Q 0.791015625 0.123779296875 0.775634765625 0.131103515625 Q 0.802734375 0.112060546875 0.828369140625 0.095947265625 Q 0.85400390625 0.079833984375 0.8800048828125 0.0684814453125 Q 0.906005859375 0.05712890625 0.9327392578125 0.050537109375 Q 0.95947265625 0.0439453125 0.990234375 0.0439453125 Q 1.007080078125 0.0439453125 1.0279541015625 0.0450439453125 Q 1.048828125 0.046142578125 1.07373046875 0.0498046875 Q 1.053955078125 0.062255859375 1.036376953125 0.0721435546875 Q 1.018798828125 0.08203125 1.001953125 0.090087890625 Q 1.00048828125 0.314208984375 0.9891357421875 0.5306396484375 Q 0.977783203125 0.7470703125 0.967529296875 0.963134765625 Q 0.923583984375 1.034912109375 0.9041748046875 1.0810546875 Q 0.884765625 1.127197265625 0.8818359375 1.137451171875 L 0.8818359375 1.140380859375 Q 0.84814453125 1.064208984375 0.799072265625 0.998291015625 Q 0.75 0.932373046875 0.6917724609375 0.872314453125 Q 0.633544921875 0.812255859375 0.570556640625 0.755126953125 Q 0.507568359375 0.697998046875 0.44677734375 0.6383056640625 Q 0.385986328125 0.57861328125 0.3314208984375 0.5137939453125 Q 0.27685546875 0.448974609375 0.23583984375 0.37353515625 Q 0.235107421875 0.437255859375 0.2340087890625 0.5009765625 Q 0.23291015625 0.564697265625 0.2314453125 0.62548828125 Q 0.22998046875 0.686279296875 0.227783203125 0.741943359375 Q 0.2255859375 0.797607421875 0.2230224609375 0.84375 Q 0.220458984375 0.889892578125 0.217529296875 0.925048828125 Q 0.214599609375 0.960205078125 0.211669921875 0.97998046875 M 0.101806640625 1.125 Q 0.100341796875 1.12646484375 0.097412109375 1.12646484375 L 0.097412109375 1.125 L 0.101806640625 1.125 M 1.569580078125 0.901611328125 Q 1.53076171875 0.945556640625 1.4981689453125 0.9788818359375 Q 1.465576171875 1.01220703125 1.440673828125 1.034912109375 Q 1.411376953125 1.061279296875 1.387939453125 1.080322265625 Q 1.323486328125 1.131591796875 1.27587890625 1.131591796875 Q 1.248779296875 1.131591796875 1.2293701171875 1.1173095703125 Q 1.2099609375 1.10302734375 1.196044921875 1.080322265625 Q 1.18212890625 1.0576171875 1.17333984375 1.029052734375 Q 1.16455078125 1.00048828125 1.1597900390625 0.9715576171875 Q 1.155029296875 0.942626953125 1.1531982421875 0.916259765625 Q 1.1513671875 0.889892578125 1.1513671875 0.87158203125 Q 1.1513671875 0.822509765625 1.1627197265625 0.765380859375 Q 1.174072265625 0.708251953125 1.1956787109375 0.6514892578125 Q 1.21728515625 0.5947265625 1.248779296875 0.5423583984375 Q 1.2802734375 0.489990234375 1.3209228515625 0.4493408203125 Q 1.361572265625 0.40869140625 1.4102783203125 0.384521484375 Q 1.458984375 0.3603515625 1.515380859375 0.3603515625 Q 1.53076171875 0.3603515625 1.541015625 0.3658447265625 Q 1.55126953125 0.371337890625 1.557861328125 0.380859375 Q 1.564453125 0.390380859375 1.5670166015625 0.402099609375 Q 1.569580078125 0.413818359375 1.569580078125 0.42626953125 Q 1.569580078125 0.45849609375 1.554931640625 0.49072265625 Q 1.540283203125 0.52294921875 1.5157470703125 0.5540771484375 Q 1.4912109375 0.585205078125 1.459716796875 0.6148681640625 Q 1.42822265625 0.64453125 1.3941650390625 0.6712646484375 Q 1.360107421875 0.697998046875 1.326416015625 0.721435546875 Q 1.292724609375 0.744873046875 1.264892578125 0.763916015625 L 1.264892578125 0.780029296875 Q 1.264892578125 0.79833984375 1.2667236328125 0.8243408203125 Q 1.2685546875 0.850341796875 1.2733154296875 0.8785400390625 Q 1.278076171875 0.90673828125 1.2861328125 0.9345703125 Q 1.294189453125 0.96240234375 1.306640625 0.984375 Q 1.319091796875 1.00634765625 1.3363037109375 1.0198974609375 Q 1.353515625 1.033447265625 1.376220703125 1.033447265625 Q 1.386474609375 1.033447265625 1.3974609375 1.0301513671875 Q 1.408447265625 1.02685546875 1.41943359375 1.018798828125 Q 1.4384765625 1.00341796875 1.462646484375 0.976318359375 Q 1.483154296875 0.952880859375 1.51025390625 0.91552734375 Q 1.537353515625 0.878173828125 1.569580078125 0.821044921875 L 1.569580078125 0.901611328125 M 1.433349609375 0.469482421875 Q 1.424560546875 0.459228515625 1.41064453125 0.456298828125 Q 1.396728515625 0.453369140625 1.3809814453125 0.457763671875 Q 1.365234375 0.462158203125 1.3502197265625 0.474609375 Q 1.335205078125 0.487060546875 1.324951171875 0.507568359375 Q 1.310302734375 0.536865234375 1.292724609375 0.5914306640625 Q 1.275146484375 0.64599609375 1.267822265625 0.717041015625 Q 1.291259765625 0.703125 1.316162109375 0.684814453125 Q 1.341064453125 0.66650390625 1.3641357421875 0.64599609375 Q 1.38720703125 0.62548828125 1.4058837890625 0.6031494140625 Q 1.424560546875 0.580810546875 1.4351806640625 0.5577392578125 Q 1.44580078125 0.53466796875 1.446533203125 0.5123291015625 Q 1.447265625 0.489990234375 1.433349609375 0.469482421875 M 2.37451171875 0.36474609375 Q 2.379638671875 0.3662109375 2.3778076171875 0.3753662109375 Q 2.3759765625 0.384521484375 2.3690185546875 0.3980712890625 Q 2.362060546875 0.41162109375 2.350341796875 0.4273681640625 Q 2.338623046875 0.443115234375 2.3236083984375 0.4581298828125 Q 2.30859375 0.47314453125 2.2913818359375 0.4852294921875 Q 2.274169921875 0.497314453125 2.255859375 0.50244140625 Q 2.263916015625 0.486328125 2.262451171875 0.4757080078125 Q 2.260986328125 0.465087890625 2.255859375 0.459228515625 Q 2.25 0.451904296875 2.240478515625 0.448974609375 Q 2.212646484375 0.44091796875 2.1837158203125 0.4478759765625 Q 2.15478515625 0.454833984375 2.13427734375 0.486328125 L 2.02001953125 0.6767578125 Q 2.039794921875 0.73974609375 2.06396484375 0.802001953125 Q 2.088134765625 0.8642578125 2.11669921875 0.9140625 Q 2.145263671875 0.9638671875 2.1793212890625 0.9949951171875 Q 2.21337890625 1.026123046875 2.2529296875 1.026123046875 Q 2.267578125 1.026123046875 2.2847900390625 1.0191650390625 Q 2.302001953125 1.01220703125 2.3203125 0.99609375 Q 2.279296875 1.039306640625 2.244873046875 1.0645751953125 Q 2.21044921875 1.08984375 2.185546875 1.10302734375 Q 2.15625 1.118408203125 2.1328125 1.12353515625 Q 2.096923828125 1.11181640625 2.0679931640625 1.0828857421875 Q 2.0390625 1.053955078125 2.0152587890625 1.0133056640625 Q 1.991455078125 0.97265625 1.9716796875 0.923583984375 Q 1.951904296875 0.87451171875 1.934326171875 0.822509765625 Q 1.919677734375 0.847412109375 1.8988037109375 0.875244140625 Q 1.8779296875 0.903076171875 1.853759765625 0.9305419921875 Q 1.82958984375 0.9580078125 1.803955078125 0.9832763671875 Q 1.7783203125 1.008544921875 1.7548828125 1.027587890625 Q 1.770263671875 1.029052734375 1.7838134765625 1.02978515625 Q 1.79736328125 1.030517578125 1.809814453125 1.030517578125 Q 1.855224609375 1.030517578125 1.878662109375 1.024658203125 Q 1.902099609375 1.018798828125 1.905029296875 1.017333984375 Q 1.86328125 1.05029296875 1.833984375 1.0718994140625 Q 1.8046875 1.093505859375 1.7794189453125 1.10595703125 Q 1.754150390625 1.118408203125 1.7296142578125 1.1231689453125 Q 1.705078125 1.1279296875 1.672119140625 1.1279296875 Q 1.635498046875 1.1279296875 1.58203125 1.12353515625 L 1.6904296875 1.015869140625 Q 1.698486328125 1.01806640625 1.7069091796875 1.0198974609375 Q 1.71533203125 1.021728515625 1.723388671875 1.023193359375 Q 1.739501953125 1.0107421875 1.754150390625 0.9935302734375 Q 1.768798828125 0.976318359375 1.780517578125 0.961669921875 Q 1.793701171875 0.944091796875 1.805419921875 0.92578125 Q 1.822265625 0.89794921875 1.849365234375 0.850341796875 Q 1.87646484375 0.802734375 1.910888671875 0.7470703125 Q 1.899169921875 0.708251953125 1.887451171875 0.6708984375 Q 1.875732421875 0.633544921875 1.8636474609375 0.5994873046875 Q 1.8515625 0.5654296875 1.8387451171875 0.5364990234375 Q 1.825927734375 0.507568359375 1.81201171875 0.486328125 Q 1.799560546875 0.468017578125 1.7830810546875 0.4599609375 Q 1.7666015625 0.451904296875 1.7490234375 0.451904296875 Q 1.720458984375 0.451904296875 1.694091796875 0.4669189453125 Q 1.667724609375 0.48193359375 1.65087890625 0.49951171875 Q 1.66845703125 0.47607421875 1.6900634765625 0.4500732421875 Q 1.711669921875 0.424072265625 1.7369384765625 0.4024658203125 Q 1.76220703125 0.380859375 1.7900390625 0.366943359375 Q 1.81787109375 0.35302734375 1.847900390625 0.35302734375 Q 1.875 0.35302734375 1.8988037109375 0.369873046875 Q 1.922607421875 0.38671875 1.94091796875 0.42626953125 Q 1.951904296875 0.453369140625 1.966552734375 0.5020751953125 Q 1.981201171875 0.55078125 1.99951171875 0.61083984375 Q 2.03759765625 0.556640625 2.074951171875 0.51123046875 Q 2.1123046875 0.4658203125 2.1474609375 0.43798828125 Q 2.190673828125 0.406494140625 2.227294921875 0.3896484375 Q 2.263916015625 0.372802734375 2.29248046875 0.3662109375 Q 2.321044921875 0.359619140625 2.3419189453125 0.3607177734375 Q 2.36279296875 0.36181640625 2.37451171875 0.36474609375 M 2.905517578125 0.55078125 Q 2.90771484375 0.60791015625 2.90185546875 0.662841796875 Q 2.89599609375 0.7177734375 2.8846435546875 0.7657470703125 Q 2.873291015625 0.813720703125 2.8568115234375 0.8529052734375 Q 2.84033203125 0.89208984375 2.8212890625 0.9169921875 Q 2.808837890625 0.933837890625 2.7864990234375 0.9561767578125 Q 2.76416015625 0.978515625 2.736328125 1.0023193359375 Q 2.70849609375 1.026123046875 2.677001953125 1.049560546875 Q 2.6455078125 1.072998046875 2.61474609375 1.0909423828125 Q 2.583984375 1.10888671875 2.5557861328125 1.1202392578125 Q 2.527587890625 1.131591796875 2.50634765625 1.131591796875 Q 2.4814453125 1.131591796875 2.463134765625 1.1187744140625 Q 2.44482421875 1.10595703125 2.431640625 1.0850830078125 Q 2.41845703125 1.064208984375 2.40966796875 1.0382080078125 Q 2.40087890625 1.01220703125 2.395751953125 0.9862060546875 Q 2.390625 0.960205078125 2.3887939453125 0.9364013671875 Q 2.386962890625 0.91259765625 2.386962890625 0.895751953125 Q 2.386962890625 0.831298828125 2.398681640625 0.7679443359375 Q 2.410400390625 0.70458984375 2.4349365234375 0.6474609375 Q 2.45947265625 0.59033203125 2.496826171875 0.5416259765625 Q 2.5341796875 0.492919921875 2.586181640625 0.457763671875 Q 2.619873046875 0.43505859375 2.64697265625 0.4163818359375 Q 2.674072265625 0.397705078125 2.69677734375 0.38525390625 Q 2.719482421875 0.372802734375 2.7381591796875 0.3658447265625 Q 2.7568359375 0.35888671875 2.773681640625 0.35888671875 Q 2.789794921875 0.35888671875 2.8114013671875 0.36767578125 Q 2.8330078125 0.37646484375 2.8531494140625 0.3980712890625 Q 2.873291015625 0.419677734375 2.887939453125 0.4566650390625 Q 2.902587890625 0.49365234375 2.905517578125 0.55078125 M 2.789794921875 0.67236328125 Q 2.789794921875 0.6416015625 2.785400390625 0.60205078125 Q 2.781005859375 0.5625 2.767822265625 0.528076171875 Q 2.754638671875 0.49365234375 2.7308349609375 0.4698486328125 Q 2.70703125 0.446044921875 2.66748046875 0.446044921875 Q 2.6513671875 0.446044921875 2.6341552734375 0.4530029296875 Q 2.616943359375 0.4599609375 2.602294921875 0.474609375 Q 2.572998046875 0.50390625 2.5550537109375 0.5416259765625 Q 2.537109375 0.579345703125 2.52685546875 0.62109375 Q 2.5166015625 0.662841796875 2.512939453125 0.705322265625 Q 2.50927734375 0.747802734375 2.50927734375 0.785888671875 Q 2.50927734375 0.8056640625 2.510009765625 0.8316650390625 Q 2.5107421875 0.857666015625 2.514404296875 0.8851318359375 Q 2.51806640625 0.91259765625 2.5250244140625 0.939697265625 Q 2.531982421875 0.966796875 2.5440673828125 0.9876708984375 Q 2.55615234375 1.008544921875 2.574462890625 1.021728515625 Q 2.5927734375 1.034912109375 2.619140625 1.034912109375 Q 2.654296875 1.034912109375 2.6806640625 1.0147705078125 Q 2.70703125 0.99462890625 2.72607421875 0.96240234375 Q 2.7451171875 0.93017578125 2.7572021484375 0.889892578125 Q 2.769287109375 0.849609375 2.776611328125 0.809326171875 Q 2.783935546875 0.76904296875 2.786865234375 0.7327880859375 Q 2.789794921875 0.696533203125 2.789794921875 0.67236328125 M 3.226318359375 0.708251953125 Q 3.22265625 0.75 3.2197265625 0.802001953125 Q 3.216796875 0.8466796875 3.213134765625 0.9078369140625 Q 3.20947265625 0.968994140625 3.205078125 1.04296875 L 3.08203125 1.147705078125 Q 3.09814453125 0.998291015625 3.1102294921875 0.86279296875 Q 3.122314453125 0.727294921875 3.122314453125 0.595458984375 Q 3.122314453125 0.52880859375 3.10400390625 0.4969482421875 Q 3.085693359375 0.465087890625 3.054931640625 0.465087890625 Q 3.022705078125 0.465087890625 2.980224609375 0.498046875 Q 2.98974609375 0.4892578125 3.0032958984375 0.4757080078125 Q 3.016845703125 0.462158203125 3.0325927734375 0.44677734375 Q 3.04833984375 0.431396484375 3.0655517578125 0.416015625 Q 3.082763671875 0.400634765625 3.0992431640625 0.38818359375 Q 3.11572265625 0.375732421875 3.131103515625 0.3680419921875 Q 3.146484375 0.3603515625 3.158203125 0.3603515625 Q 3.186767578125 0.3603515625 3.2021484375 0.37646484375 Q 3.217529296875 0.392578125 3.224853515625 0.416015625 Q 3.232177734375 0.439453125 3.233642578125 0.465087890625 Q 3.235107421875 0.49072265625 3.235107421875 0.509033203125 L 3.235107421875 0.54345703125 Q 3.27392578125 0.47900390625 3.3270263671875 0.429931640625 Q 3.380126953125 0.380859375 3.451171875 0.3603515625 Q 3.466552734375 0.35595703125 3.481201171875 0.3577880859375 Q 3.495849609375 0.359619140625 3.510498046875 0.3636474609375 Q 3.525146484375 0.36767578125 3.5416259765625 0.3720703125 Q 3.55810546875 0.37646484375 3.5771484375 0.37646484375 Q 3.591796875 0.37646484375 3.60791015625 0.372802734375 Q 3.6240234375 0.369140625 3.64453125 0.3603515625 Q 3.623291015625 0.381591796875 3.602783203125 0.402099609375 Q 3.582275390625 0.422607421875 3.5621337890625 0.4390869140625 Q 3.5419921875 0.45556640625 3.5225830078125 0.4669189453125 Q 3.503173828125 0.478271484375 3.485595703125 0.48046875 Q 3.466552734375 0.482666015625 3.4493408203125 0.4779052734375 Q 3.43212890625 0.47314453125 3.4141845703125 0.4676513671875 Q 3.396240234375 0.462158203125 3.37646484375 0.4595947265625 Q 3.356689453125 0.45703125 3.333984375 0.463623046875 Q 3.318603515625 0.46875 3.3035888671875 0.4918212890625 Q 3.28857421875 0.514892578125 3.2742919921875 0.5489501953125 Q 3.260009765625 0.5830078125 3.2479248046875 0.6243896484375 Q 3.23583984375 0.665771484375 3.226318359375 0.706787109375 L 3.226318359375 0.708251953125 M 4.294921875 0.92431640625 Q 4.288330078125 0.9345703125 4.276611328125 0.9488525390625 Q 4.264892578125 0.963134765625 4.253173828125 0.97705078125 Q 4.239990234375 0.9931640625 4.224609375 1.010009765625 Q 4.20556640625 1.033447265625 4.18359375 1.055419921875 Q 4.16162109375 1.077392578125 4.1400146484375 1.0946044921875 Q 4.118408203125 1.11181640625 4.097900390625 1.1220703125 Q 4.077392578125 1.13232421875 4.061279296875 1.131591796875 Q 4.030517578125 1.130126953125 4.018798828125 1.0938720703125 Q 4.007080078125 1.0576171875 4.007080078125 0.98876953125 Q 4.007080078125 0.9521484375 4.00927734375 0.90966796875 Q 4.011474609375 0.8671875 4.015869140625 0.814453125 Q 3.999755859375 0.840087890625 3.985107421875 0.861328125 Q 3.970458984375 0.882568359375 3.958740234375 0.898681640625 Q 3.945556640625 0.917724609375 3.932373046875 0.93310546875 Q 3.8935546875 0.980712890625 3.8572998046875 1.017333984375 Q 3.821044921875 1.053955078125 3.7906494140625 1.078857421875 Q 3.76025390625 1.103759765625 3.7371826171875 1.116943359375 Q 3.714111328125 1.130126953125 3.700927734375 1.131591796875 Q 3.687744140625 1.133056640625 3.6690673828125 1.122802734375 Q 3.650390625 1.112548828125 3.633544921875 1.083251953125 Q 3.61669921875 1.053955078125 3.6046142578125 1.001220703125 Q 3.592529296875 0.948486328125 3.59326171875 0.8642578125 Q 3.593994140625 0.780029296875 3.6112060546875 0.7159423828125 Q 3.62841796875 0.65185546875 3.6558837890625 0.6038818359375 Q 3.683349609375 0.555908203125 3.717041015625 0.5211181640625 Q 3.750732421875 0.486328125 3.78369140625 0.460693359375 Q 3.851806640625 0.40869140625 3.9144287109375 0.3775634765625 Q 3.97705078125 0.346435546875 4.037109375 0.344970703125 Q 4.056884765625 0.34423828125 4.075927734375 0.345703125 Q 4.0927734375 0.34716796875 4.1121826171875 0.3504638671875 Q 4.131591796875 0.353759765625 4.149169921875 0.3603515625 L 4.17041015625 0.343505859375 Q 4.166015625 0.364013671875 4.1612548828125 0.399169921875 Q 4.156494140625 0.434326171875 4.152099609375 0.478271484375 Q 4.147705078125 0.522216796875 4.143310546875 0.572021484375 Q 4.138916015625 0.621826171875 4.1356201171875 0.6719970703125 Q 4.13232421875 0.72216796875 4.12939453125 0.7694091796875 Q 4.12646484375 0.816650390625 4.1246337890625 0.85546875 Q 4.122802734375 0.894287109375 4.1224365234375 0.92138671875 Q 4.1220703125 0.948486328125 4.122802734375 0.958740234375 Q 4.12646484375 1.00048828125 4.1422119140625 1.015869140625 Q 4.157958984375 1.03125 4.185791015625 1.012939453125 Q 4.19677734375 1.004150390625 4.212890625 0.985107421875 Q 4.226806640625 0.968994140625 4.2469482421875 0.9407958984375 Q 4.26708984375 0.91259765625 4.294921875 0.8671875 L 4.294921875 0.92431640625 M 4.04443359375 0.457763671875 Q 3.974853515625 0.448974609375 3.93017578125 0.448974609375 Q 3.882568359375 0.448974609375 3.847412109375 0.46435546875 Q 3.812255859375 0.479736328125 3.787353515625 0.5057373046875 Q 3.762451171875 0.53173828125 3.746337890625 0.5657958984375 Q 3.730224609375 0.599853515625 3.7210693359375 0.637939453125 Q 3.7119140625 0.676025390625 3.7086181640625 0.715576171875 Q 3.705322265625 0.755126953125 3.705322265625 0.791015625 Q 3.705322265625 0.803466796875 3.706787109375 0.82470703125 Q 3.708251953125 0.845947265625 3.7122802734375 0.8701171875 Q 3.71630859375 0.894287109375 3.7225341796875 0.919189453125 Q 3.728759765625 0.944091796875 3.7386474609375 0.9642333984375 Q 3.74853515625 0.984375 3.76171875 0.9971923828125 Q 3.77490234375 1.010009765625 3.79248046875 1.010009765625 Q 3.8115234375 1.010009765625 3.8389892578125 0.9891357421875 Q 3.866455078125 0.96826171875 3.9052734375 0.91845703125 Q 3.927978515625 0.8876953125 3.95068359375 0.844482421875 Q 3.9697265625 0.807861328125 3.9913330078125 0.75439453125 Q 4.012939453125 0.700927734375 4.02978515625 0.6298828125 L 4.04443359375 0.457763671875 M 4.57177734375 1.03857421875 Q 4.532958984375 1.060546875 4.4974365234375 1.0751953125 Q 4.4619140625 1.08984375 4.43115234375 1.0986328125 Q 4.400390625 1.107421875 4.3758544921875 1.111083984375 Q 4.351318359375 1.11474609375 4.333740234375 1.11474609375 L 4.223876953125 1.11474609375 L 4.3037109375 1.070068359375 Q 4.316162109375 1.053955078125 4.327880859375 1.037841796875 Q 4.339599609375 1.021728515625 4.34765625 1.0078125 Q 4.357177734375 0.992431640625 4.365234375 0.97705078125 Q 4.387939453125 0.930908203125 4.4326171875 0.82763671875 Q 4.450927734375 0.78369140625 4.4761962890625 0.722900390625 Q 4.50146484375 0.662109375 4.534423828125 0.58154296875 Q 4.5673828125 0.5009765625 4.607666015625 0.3984375 Q 4.64794921875 0.2958984375 4.69775390625 0.16845703125 L 4.8251953125 0.05126953125 L 5.1123046875 1.024658203125 Q 5.14306640625 1.03271484375 5.1712646484375 1.034912109375 Q 5.199462890625 1.037109375 5.224365234375 1.037109375 Q 5.237548828125 1.037109375 5.24853515625 1.0367431640625 Q 5.259521484375 1.036376953125 5.267578125 1.03564453125 Q 5.2763671875 1.034912109375 5.284423828125 1.033447265625 Q 5.241943359375 1.053955078125 5.21044921875 1.0689697265625 Q 5.178955078125 1.083984375 5.1544189453125 1.09423828125 Q 5.1298828125 1.1044921875 5.1090087890625 1.109619140625 Q 5.088134765625 1.11474609375 5.06689453125 1.11474609375 L 4.94970703125 1.11474609375 L 4.98779296875 1.090576171875 L 4.87060546875 0.702392578125 Q 4.849365234375 0.708251953125 4.821533203125 0.7137451171875 Q 4.793701171875 0.71923828125 4.7552490234375 0.7236328125 Q 4.716796875 0.72802734375 4.6658935546875 0.731689453125 Q 4.614990234375 0.7353515625 4.54833984375 0.73828125 Q 4.517578125 0.803466796875 4.491943359375 0.85400390625 Q 4.46630859375 0.904541015625 4.44580078125 0.94189453125 Q 4.42529296875 0.979248046875 4.4095458984375 1.0048828125 Q 4.393798828125 1.030517578125 4.3828125 1.0458984375 Q 4.395263671875 1.048095703125 4.41064453125 1.0491943359375 Q 4.426025390625 1.05029296875 4.44140625 1.05029296875 Q 4.46484375 1.05029296875 4.4879150390625 1.0484619140625 Q 4.510986328125 1.046630859375 4.530029296875 1.04443359375 Q 4.552001953125 1.04150390625 4.57177734375 1.03857421875 M 4.67431640625 0.651123046875 Q 4.773193359375 0.651123046875 4.853759765625 0.646728515625 L 4.74169921875 0.274658203125 Q 4.6962890625 0.39111328125 4.6585693359375 0.482666015625 Q 4.620849609375 0.57421875 4.587158203125 0.651123046875 L 4.67431640625 0.651123046875 M 5.681396484375 1.020263671875 Q 5.641845703125 1.046630859375 5.6162109375 1.065673828125 Q 5.590576171875 1.084716796875 5.5697021484375 1.0968017578125 Q 5.548828125 1.10888671875 5.5294189453125 1.11474609375 Q 5.510009765625 1.12060546875 5.483642578125 1.12060546875 Q 5.448486328125 1.12060546875 5.423583984375 1.11767578125 Q 5.398681640625 1.11474609375 5.373779296875 1.11474609375 Q 5.361328125 1.11474609375 5.3485107421875 1.1158447265625 Q 5.335693359375 1.116943359375 5.3203125 1.12060546875 Q 5.3408203125 1.10302734375 5.357666015625 1.08251953125 Q 5.37451171875 1.06201171875 5.3865966796875 1.031982421875 Q 5.398681640625 1.001953125 5.4052734375 0.9598388671875 Q 5.411865234375 0.917724609375 5.411865234375 0.8583984375 L 5.411865234375 0.11865234375 Q 5.38916015625 0.120849609375 5.35693359375 0.12451171875 Q 5.32470703125 0.128173828125 5.28369140625 0.134033203125 Q 5.3232421875 0.101806640625 5.3551025390625 0.0849609375 Q 5.386962890625 0.068115234375 5.40966796875 0.06005859375 Q 5.43603515625 0.05126953125 5.45654296875 0.0498046875 Q 5.482177734375 0.050537109375 5.5133056640625 0.049072265625 Q 5.54443359375 0.047607421875 5.5733642578125 0.0450439453125 Q 5.602294921875 0.04248046875 5.62646484375 0.0384521484375 Q 5.650634765625 0.034423828125 5.662353515625 0.030029296875 Q 5.6279296875 0.052734375 5.6004638671875 0.0684814453125 Q 5.572998046875 0.084228515625 5.548095703125 0.094482421875 Q 5.54443359375 0.22705078125 5.5418701171875 0.331787109375 Q 5.539306640625 0.4365234375 5.5374755859375 0.5174560546875 Q 5.53564453125 0.598388671875 5.5345458984375 0.6573486328125 Q 5.533447265625 0.71630859375 5.53271484375 0.758056640625 Q 5.530517578125 0.85546875 5.53125 0.891357421875 Q 5.530517578125 0.91845703125 5.52392578125 0.94482421875 Q 5.51806640625 0.96826171875 5.50634765625 0.9942626953125 Q 5.49462890625 1.020263671875 5.47265625 1.04150390625 Q 5.486572265625 1.04296875 5.499755859375 1.04296875 Q 5.512939453125 1.04296875 5.525390625 1.04296875 Q 5.562744140625 1.04296875 5.5916748046875 1.0396728515625 Q 5.62060546875 1.036376953125 5.640380859375 1.031982421875 Q 5.663818359375 1.02685546875 5.681396484375 1.020263671875" fill="#173054" fill-rule="nonzero"></path></g><g></g></g><defs><clipPath id="SvgjsClipPath100450"><path d=" M -2.4624238527023743 -0.4738388794761872 h 2.0624238527023744 v 2.0624238527023744 h -2.0624238527023744 Z"></path></clipPath><clipPath id="SvgjsClipPath1004487de6afe3-d9c8-4128-aa10-d081ea3bcc32"><path d=" M -2.4624238527023743 -0.4738388794761872 L -0.3999999999999999 -0.4738388794761872 L -0.3999999999999999 1.5885849732261872 L -2.4624238527023743 1.5885849732261872 Z"></path></clipPath></defs></svg>